<?xml version="1.0" encoding="utf-8"?>
<!-- Generator: Adobe Illustrator 24.0.2, SVG Export Plug-In . SVG Version: 6.00 Build 0)  -->
<svg version="1.1" id="Layer_1" xmlns="http://www.w3.org/2000/svg" xmlns:xlink="http://www.w3.org/1999/xlink" x="0px" y="0px"
	 viewBox="0 0 7680 4320" style="enable-background:new 0 0 7680 4320;" xml:space="preserve">
<style type="text/css">
	.st0{clip-path:url(#XMLID_2_);fill:url(#XMLID_3_);}
	.st1{clip-path:url(#XMLID_2_);fill:url(#SVGID_1_);}
	.st2{clip-path:url(#XMLID_2_);}
	.st3{fill:#FFFFFF;}
	.st4{clip-path:url(#XMLID_2_);fill:url(#SVGID_2_);}
	.st5{clip-path:url(#XMLID_2_);fill:url(#SVGID_3_);}
	.st6{clip-path:url(#XMLID_2_);fill:#F2BBBB;}
	.st7{clip-path:url(#XMLID_2_);fill:url(#SVGID_4_);}
	.st8{clip-path:url(#XMLID_2_);fill:url(#SVGID_5_);}
	.st9{clip-path:url(#XMLID_2_);fill:url(#SVGID_6_);}
	.st10{clip-path:url(#XMLID_2_);fill:url(#SVGID_7_);}
	.st11{clip-path:url(#XMLID_2_);fill:url(#SVGID_8_);}
	.st12{clip-path:url(#XMLID_2_);fill:url(#SVGID_9_);}
	.st13{fill:url(#SVGID_10_);}
	.st14{fill:url(#SVGID_11_);}
	.st15{fill:url(#SVGID_12_);}
	.st16{fill:url(#SVGID_13_);}
	.st17{fill:url(#SVGID_14_);}
	.st18{fill:url(#SVGID_15_);}
	.st19{fill:url(#SVGID_16_);}
	.st20{fill:url(#SVGID_17_);}
	.st21{fill:url(#SVGID_18_);}
	.st22{fill:url(#SVGID_19_);}
	.st23{fill:url(#SVGID_20_);}
	.st24{clip-path:url(#XMLID_2_);fill:url(#SVGID_21_);}
	.st25{clip-path:url(#XMLID_2_);fill:url(#SVGID_22_);}
</style>
<g>
	<g>
		<defs>
			
				<rect id="XMLID_5_" x="1680" y="-1680" transform="matrix(6.123234e-17 -1 1 6.123234e-17 1680 6000)" width="4320" height="7680"/>
		</defs>
		<clipPath id="XMLID_2_">
			<use xlink:href="#XMLID_5_"  style="overflow:visible;"/>
		</clipPath>
		
			<linearGradient id="XMLID_3_" gradientUnits="userSpaceOnUse" x1="195.1455" y1="420.2272" x2="3772.8787" y2="5576.3745" gradientTransform="matrix(6.123234e-17 -1 1 6.123234e-17 811.5649 4164.9214)">
			<stop  offset="0" style="stop-color:#2C347F"/>
			<stop  offset="0.6018" style="stop-color:#262662"/>
			<stop  offset="1" style="stop-color:#231F54"/>
		</linearGradient>
		<polygon id="XMLID_6_" class="st0" points="7680,0 7680,4320 0,4320 0,0 		"/>
		
			<linearGradient id="SVGID_1_" gradientUnits="userSpaceOnUse" x1="3118.9368" y1="-553.8103" x2="701.6921" y2="1396.9458" gradientTransform="matrix(6.123234e-17 -1 1 6.123234e-17 811.5649 4164.9214)">
			<stop  offset="0" style="stop-color:#2C347F"/>
			<stop  offset="0.6018" style="stop-color:#262662"/>
			<stop  offset="1" style="stop-color:#231F54"/>
		</linearGradient>
		<path class="st1" d="M-18.4,1210.5c0,0,518.4,70.7,736.3,9.9c217.9-60.8,334.2-201.3,813-440.2s859.6-405.5,1140.2-366.5
			c280.6,39,545.1,18.5,716.4,166.8s1535.2,360,677.5,818.8c-778.6,416.4-937.8,818-1696,1125.8
			c-601.9,244.3-976.3-47.8-1377.8,444.6c-527,646.2-817.1,498.6-1266.6,1116.6C-501.5,4397-1109,4402-1109,4402L-18.4,1210.5z"/>
		<g class="st2">
			<path class="st3" d="M1722.2,2283.6c0,9.5-2.4,19.2-7.2,28.7c-25.7,50.7-151.2,145.6-344.3,260.4
				c-175.8,104.6-374.4,205-505.8,255.8c-278.1,107.4-408.2,174.9-632.9,328.2c-216.3,147.6-419.5,406.6-341,691.2
				c75.7,274.6-147.9,820.4-150.1,825.8l-1.9,4.6l-3.9-3.7c-4.6-4.3-460.3-432.4-723.1-573.2c-184.3-98.7-121.3-210.2-16.9-395
				c47.3-83.6,106.1-187.7,153-312.4c140.7-374,308.1-736.5,666.1-705.3c204,17.7,550.6-89.3,739.1-154.7
				c259.7-90.1,534.2-209.9,667.6-291.4c162.2-99.2,351.5-91.1,447.3-33.2C1703.6,2231,1722.2,2257,1722.2,2283.6z M-133,3722
				c0-235.5,175.5-442.9,360.6-569.2c225.3-153.7,355.7-221.4,634.4-329c281.3-108.7,793.4-408.2,846.9-513.4
				c17.2-33.8,0.9-69-44.7-96.5c-93.8-56.7-279.6-64.4-439.2,33.1c-235.4,143.9-1053.5,478.3-1411.5,447.2
				c-352.9-30.7-519,329.8-658.9,701.6c-47,125-106,229.3-153.3,313c-103,182.2-165.1,292.1,14.5,388.4
				c250.6,134.2,675.3,528.2,720.6,570.5c21.5-53.4,219.8-558.6,148.1-818.5C-127.6,3806-133,3763.6-133,3722z"/>
		</g>
		
			<linearGradient id="SVGID_2_" gradientUnits="userSpaceOnUse" x1="3006.3535" y1="4884.6616" x2="4994.9258" y2="4884.6616" gradientTransform="matrix(6.123234e-17 -1 1 6.123234e-17 811.5649 4164.9214)">
			<stop  offset="0" style="stop-color:#FFFFFF"/>
			<stop  offset="1" style="stop-color:#FBDCDF"/>
		</linearGradient>
		<path class="st4" d="M2987,307.3c0,0-578.5,490.2-442.6,680.2c135.9,190,255.4,221.1,633.3,96.5
			c377.9-124.6,312.6-249.8,691.6-386.5c379-136.7,441.9-157.5,578.9,20.5c137,177.9,207.8,240.2,584,135
			c376.1-105.2,959.1-473.5,1328.3-671.6c369.1-198,673.1-351.1,1243.3-404.1s1265.1-305.6,1265.1-305.6L3516.2-830
			C3516.2-830,3878.3-262.5,2987,307.3z"/>
		
			<linearGradient id="SVGID_3_" gradientUnits="userSpaceOnUse" x1="-574.7416" y1="4844.6455" x2="3404.3025" y2="4844.6455" gradientTransform="matrix(6.123234e-17 -1 1 6.123234e-17 811.5649 4164.9214)">
			<stop  offset="0" style="stop-color:#EC2A5E"/>
			<stop  offset="1" style="stop-color:#BE2229"/>
		</linearGradient>
		<path class="st5" d="M3364.8,4739.7c0,0,298.8-372,575.2-594.9c276.4-222.9,365.3-495.5,568.3-737.8
			c203.1-242.3,593.2-523.4,761.5-695c168.3-171.6,190.4-153.1,583.8-425.6c393.4-272.6,723.4,0,989.9-232.2
			c266.5-232.2,266.5-676.4,431.5-878.3c165-201.9,494.9-434.1,672.6-413.9v3977.8H3364.8z"/>
		<path class="st6" d="M4740.5,5947.6c0,0,188.7-415.1,396.8-680.9c208.1-265.8,219.5-547.2,350.6-819.1
			c131.2-271.9,434.1-614.3,550.9-811.1c116.7-196.9,143.4-182.6,451.9-517.3s705.7-126.5,901.5-399.6
			c195.9-273.1,73.1-706.5,178.3-932.3s362.9-510,541.8-521.4l1098.8,3880.6L4740.5,5947.6z"/>
		<g class="st2">
			<path class="st3" d="M4831.1,809.2c31.7-147.9,441.8-342.3,711.3-435.9c31.9-11.1,63.5-21.8,94.9-32.5
				c322.9-110,627.8-213.9,991-579.7c314.5-316.8,333.6-340.9,516.2-572.1c48.1-61,108.1-136.8,187.9-236.3
				c195.2-243.3,171.1-502.4,116.6-676.9c-59.2-189.3-166-322.7-167.1-324l-4.6-5.7l8.3,1.7l2137.9,434.5l-5.6,3.3
				c-4.2,2.5-424.9,253.8-830.5,514.8c-199.4,128.3-269.5,238.2-337.3,344.4c-72.1,112.9-146.5,229.7-373.9,370.2
				c-182.1,112.5-343,186-498.5,257.1C7155.7-26.4,6964.1,61.1,6771,235c-335.6,302.2-1164.9,810.9-1623,748.8
				c-200.4-27.2-307.4-76.1-318-145.4C4828.6,829,4829,819.2,4831.1,809.2z M7479.3-1335.8c-20.5,95.5-63.6,194.7-141.3,291.5
				c-79.8,99.4-139.7,175.3-187.8,236.2c-182.8,231.4-201.9,255.6-516.6,572.5c-364.2,366.9-669.9,471-993.6,581.3
				c-31.3,10.7-62.9,21.4-94.8,32.5c-285.9,99.3-730.9,311.9-708.5,459.6c10.2,66.7,115.4,114,312.5,140.8
				c141.1,19.1,404.1-6.9,855.9-239.3c279.1-143.6,577.7-342.9,760.8-507.8c193.9-174.6,385.9-262.3,608.2-363.9
				c155.4-71,316-144.4,497.7-256.7c226.2-139.8,300.3-256,372-368.4c68.1-106.8,138.6-217.2,339.1-346.2
				c380.3-244.7,773.8-480.9,825.1-511.6l-2116.2-430.1c20.9,27.4,110.9,151.7,163.5,319.8C7488.6-1619.4,7510.6-1482,7479.3-1335.8
				z"/>
		</g>
		
			<linearGradient id="SVGID_4_" gradientUnits="userSpaceOnUse" x1="-33.8324" y1="3892.301" x2="1544.5676" y2="3892.301" gradientTransform="matrix(6.123234e-17 -1 1 6.123234e-17 811.5649 4164.9214)">
			<stop  offset="0" style="stop-color:#FFFFFF"/>
			<stop  offset="1" style="stop-color:#FBDCDF"/>
		</linearGradient>
		<path class="st7" d="M3634.9,3964c0,0,146,63.1,350.1,0c204.1-63.1,306.2-117.3,408.2-239.1c102.1-121.8,236.2-175.9,319.4-342.8
			c83.2-166.9,196.6-378.9,315.6-469.1c119.1-90.2,426.3-282.7,686.6-292.5c260.3-9.7-431.4,265.4-556.2,436.8
			c-124.7,171.4-328.9,581.9-567,816.4c-238.1,234.6-538.6,329.3-731.4,324.8C3667.4,4194.1,3634.9,3964,3634.9,3964z"/>
		
			<linearGradient id="SVGID_5_" gradientUnits="userSpaceOnUse" x1="-739.7581" y1="4942.6919" x2="2077.2063" y2="2021.9493" gradientTransform="matrix(6.123234e-17 -1 1 6.123234e-17 811.5649 4164.9214)">
			<stop  offset="0" style="stop-color:#2C347F"/>
			<stop  offset="0.6018" style="stop-color:#262662"/>
			<stop  offset="1" style="stop-color:#231F54"/>
		</linearGradient>
		<path class="st8" d="M2131.1,4405.8c0,0,807.7-160.2,1082.7-536.6c282.6-386.8,699-435.9,782.2-271.3
			c86.3,170.8-308,211-267.5,390.6c34.8,154.2,390.5,50.1,532.5-62.8s375.4-353,551.6-621.3c176.2-268.3,106-282.4,434-494.2
			c327.9-211.8,576.4-169.4,789.4-310.6c213-141.2,479.2-56.5,159.7,211.8c-319.5,268.3-426,341.9-568,707.5
			s-53.2,533.2-301.7,809.5c-248.5,276.3-513.4,304.5-513.4,304.5L2131.1,4405.8z"/>
		<path class="st6" d="M-1271.1,1792.8c0,0,414.9,220,1086.6-62.9c671.7-282.9,1185.4-675.8,1600.3-880.1
			c414.9-204.3,770.5-251.5,829.8-94.3c59.3,157.2-355.6,298.6-197.6,440.1c158,141.4,475.9,141.4,949.2-282.9
			c473.3-424.4,987-660.1,1401.8-754.4c414.9-94.3,849.5-220,849.5-613l-6519.6-110V1792.8z"/>
		
			<linearGradient id="SVGID_6_" gradientUnits="userSpaceOnUse" x1="3127.5022" y1="-89.7456" x2="3235.3899" y2="-89.7456" gradientTransform="matrix(6.123234e-17 -1 1 6.123234e-17 811.5649 4164.9214)">
			<stop  offset="0" style="stop-color:#FFFFFF"/>
			<stop  offset="1" style="stop-color:#FBDCDF"/>
		</linearGradient>
		<path class="st9" d="M712.3,1030c0,0,45.3,13.3,90.5-36c45.3-49.3,0-81.5-45.3-54.9c-45.3,26.5-107.2,45.5-131,79.6
			C602.7,1052.7,681.9,1030,712.3,1030z"/>
		
			<linearGradient id="SVGID_7_" gradientUnits="userSpaceOnUse" x1="3834.0752" y1="-570.5832" x2="4495.7681" y2="-570.5832" gradientTransform="matrix(6.123234e-17 -1 1 6.123234e-17 811.5649 4164.9214)">
			<stop  offset="0" style="stop-color:#FFFFFF"/>
			<stop  offset="1" style="stop-color:#FBDCDF"/>
		</linearGradient>
		<path class="st10" d="M182.4,285.4c0,0,277.5,81.3,555.1-220.8c277.5-302.1,0-499.7-277.5-337C182.4-109.7-197.4,6.5-343.5,215.7
			C-489.5,424.8-3.8,285.1,182.4,285.4z"/>
		
			<linearGradient id="SVGID_8_" gradientUnits="userSpaceOnUse" x1="3391.5916" y1="217.2225" x2="3792.6528" y2="217.2225" gradientTransform="matrix(6.123234e-17 -1 1 6.123234e-17 811.5649 4164.9214)">
			<stop  offset="0" style="stop-color:#FFFFFF"/>
			<stop  offset="1" style="stop-color:#FBDCDF"/>
		</linearGradient>
		<path class="st11" d="M926.6,558c0,0-172.9,66.7-193.9,154.2c-21,87.5,57.6,75,214.8,0c157.2-75,115.3-64.7,293.4-182.4
			c178.2-117.7,47.2-191.7-73.4-141.7C1047.1,438.2,972.8,537.2,926.6,558z"/>
		
			<linearGradient id="SVGID_9_" gradientUnits="userSpaceOnUse" x1="3174.5037" y1="501.6827" x2="3404.1597" y2="501.6827" gradientTransform="matrix(6.123234e-17 -1 1 6.123234e-17 811.5649 4164.9214)">
			<stop  offset="0" style="stop-color:#FFFFFF"/>
			<stop  offset="1" style="stop-color:#FBDCDF"/>
		</linearGradient>
		<path class="st12" d="M1292.9,974.6c0,0,96.3,28.2,192.6-76.6c96.3-104.9,0-173.4-96.3-117c-96.3,56.5-228.1,96.8-278.8,169.4
			C1059.7,1023,1228.3,974.6,1292.9,974.6z"/>
		<g class="st2">
			
				<linearGradient id="SVGID_10_" gradientUnits="userSpaceOnUse" x1="2592.2344" y1="5626.9663" x2="2705.7336" y2="5626.9663" gradientTransform="matrix(6.123234e-17 -1 1 6.123234e-17 811.5649 4164.9214)">
				<stop  offset="0" style="stop-color:#FFFFFF"/>
				<stop  offset="1" style="stop-color:#FBDCDF"/>
			</linearGradient>
			<path class="st13" d="M6448.1,1467.4c0,0-47.3-13.5-93.9,38.2c-46.6,51.7,0.9,84.9,47.8,56.9c46.8-28,111.1-48.2,135.6-83.9
				C6561.9,1442.9,6479.7,1467.3,6448.1,1467.4z"/>
			
				<linearGradient id="SVGID_11_" gradientUnits="userSpaceOnUse" x1="558.2874" y1="150.3863" x2="717.5919" y2="150.3863" gradientTransform="matrix(6.123234e-17 -1 1 6.123234e-17 811.5649 4164.9214)">
				<stop  offset="0" style="stop-color:#FFFFFF"/>
				<stop  offset="1" style="stop-color:#FBDCDF"/>
			</linearGradient>
			<path class="st14" d="M975.3,3458.9c0,0-66.4-18.9-131.8,53.6c-65.4,72.5,1.3,119.1,67.1,79.9c65.7-39.3,156-67.6,190.3-117.7
				C1135.2,3424.5,1019.7,3458.7,975.3,3458.9z"/>
			
				<linearGradient id="SVGID_12_" gradientUnits="userSpaceOnUse" x1="-223.5574" y1="-590.7705" x2="102.0345" y2="-590.7705" gradientTransform="matrix(6.123234e-17 -1 1 6.123234e-17 811.5649 4164.9214)">
				<stop  offset="0" style="stop-color:#FFFFFF"/>
				<stop  offset="1" style="stop-color:#FBDCDF"/>
			</linearGradient>
			<path class="st15" d="M248.1,4086.5c0,0-135.7-38.7-269.3,109.5c-133.6,148.2,2.7,243.5,137.1,163.3
				c134.4-80.2,318.8-138.2,388.9-240.6C574.8,4016.3,338.8,4086,248.1,4086.5z"/>
			
				<linearGradient id="SVGID_13_" gradientUnits="userSpaceOnUse" x1="3412.3931" y1="6195.0405" x2="3525.8923" y2="6195.0405" gradientTransform="matrix(6.123234e-17 -1 1 6.123234e-17 811.5649 4164.9214)">
				<stop  offset="0" style="stop-color:#FFFFFF"/>
				<stop  offset="1" style="stop-color:#FBDCDF"/>
			</linearGradient>
			<path class="st16" d="M7016.1,647.3c0,0-47.3-13.5-93.9,38.2c-46.6,51.7,0.9,84.9,47.8,56.9c46.8-28,111.1-48.2,135.6-83.9
				C7130,622.8,7047.8,647.1,7016.1,647.3z"/>
			
				<linearGradient id="SVGID_14_" gradientUnits="userSpaceOnUse" x1="2653.1963" y1="6307.3003" x2="2766.6951" y2="6307.3003" gradientTransform="matrix(6.123234e-17 -1 1 6.123234e-17 811.5649 4164.9214)">
				<stop  offset="0" style="stop-color:#FFFFFF"/>
				<stop  offset="1" style="stop-color:#FBDCDF"/>
			</linearGradient>
			<path class="st17" d="M7128.4,1406.5c0,0-47.3-13.5-93.9,38.2c-46.6,51.7,0.9,84.9,47.8,56.9c46.8-28,111.1-48.2,135.6-83.9
				C7242.3,1382,7160,1406.3,7128.4,1406.5z"/>
			
				<linearGradient id="SVGID_15_" gradientUnits="userSpaceOnUse" x1="2336.592" y1="5159.9839" x2="2450.0908" y2="5159.9839" gradientTransform="matrix(6.123234e-17 -1 1 6.123234e-17 811.5649 4164.9214)">
				<stop  offset="0" style="stop-color:#FFFFFF"/>
				<stop  offset="1" style="stop-color:#FBDCDF"/>
			</linearGradient>
			<path class="st18" d="M5981.1,1723.1c0,0-47.3-13.5-93.9,38.2c-46.6,51.7,0.9,84.9,47.8,56.9c46.8-28,111.1-48.2,135.6-83.9
				C6095,1698.6,6012.7,1722.9,5981.1,1723.1z"/>
			
				<linearGradient id="SVGID_16_" gradientUnits="userSpaceOnUse" x1="3311.9392" y1="6557.8013" x2="3472.3418" y2="6557.8013" gradientTransform="matrix(6.123234e-17 -1 1 6.123234e-17 811.5649 4164.9214)">
				<stop  offset="0" style="stop-color:#FFFFFF"/>
				<stop  offset="1" style="stop-color:#FBDCDF"/>
			</linearGradient>
			<path class="st19" d="M7410,778.4c0,0,68.3-26.9,76.2-61.7s-23.2-29.6-85.2,0.6c-62,30.2-45.4,26-115.6,73.2
				c-70.2,47.2-17.9,76.2,29.7,56C7362.7,826.3,7391.8,786.8,7410,778.4z"/>
			
				<linearGradient id="SVGID_17_" gradientUnits="userSpaceOnUse" x1="2841.7375" y1="6082.3853" x2="3002.1394" y2="6082.3853" gradientTransform="matrix(6.123234e-17 -1 1 6.123234e-17 811.5649 4164.9214)">
				<stop  offset="0" style="stop-color:#FFFFFF"/>
				<stop  offset="1" style="stop-color:#FBDCDF"/>
			</linearGradient>
			<path class="st20" d="M6934.6,1248.6c0,0,68.3-26.9,76.2-61.7c7.9-34.8-23.2-29.6-85.2,0.6c-62,30.2-45.4,26-115.6,73.2
				c-70.2,47.2-17.9,76.2,29.7,56C6887.3,1296.5,6916.3,1257,6934.6,1248.6z"/>
			
				<linearGradient id="SVGID_18_" gradientUnits="userSpaceOnUse" x1="-10.5345" y1="316.1126" x2="214.6026" y2="316.1126" gradientTransform="matrix(6.123234e-17 -1 1 6.123234e-17 811.5649 4164.9214)">
				<stop  offset="0" style="stop-color:#FFFFFF"/>
				<stop  offset="1" style="stop-color:#FBDCDF"/>
			</linearGradient>
			<path class="st21" d="M1184.7,4070.8c0,0,95.9-37.8,107-86.6c11.1-48.8-32.6-41.6-119.6,0.8c-87.1,42.4-63.8,36.5-162.2,102.7
				c-98.5,66.2-25.1,106.9,41.7,78.6C1118.3,4138,1159.1,4082.6,1184.7,4070.8z"/>
			
				<linearGradient id="SVGID_19_" gradientUnits="userSpaceOnUse" x1="3053.8857" y1="5842.5156" x2="3214.2886" y2="5842.5156" gradientTransform="matrix(6.123234e-17 -1 1 6.123234e-17 811.5649 4164.9214)">
				<stop  offset="0" style="stop-color:#FFFFFF"/>
				<stop  offset="1" style="stop-color:#FBDCDF"/>
			</linearGradient>
			<path class="st22" d="M6694.7,1036.5c0,0,68.3-26.9,76.2-61.7c7.9-34.8-23.2-29.6-85.2,0.6c-62,30.2-45.4,26-115.6,73.2
				c-70.2,47.2-17.9,76.2,29.7,56C6647.4,1084.4,6676.5,1044.9,6694.7,1036.5z"/>
			
				<linearGradient id="SVGID_20_" gradientUnits="userSpaceOnUse" x1="605.0241" y1="1062.4596" x2="830.1594" y2="1062.4596" gradientTransform="matrix(6.123234e-17 -1 1 6.123234e-17 811.5649 4164.9214)">
				<stop  offset="0" style="stop-color:#FFFFFF"/>
				<stop  offset="1" style="stop-color:#FBDCDF"/>
			</linearGradient>
			<path class="st23" d="M1931.1,3455.2c0,0,95.9-37.8,107-86.6c11.1-48.8-32.6-41.6-119.6,0.8c-87.1,42.4-63.8,36.5-162.3,102.7
				c-98.5,66.2-25.1,106.9,41.7,78.6C1864.7,3522.4,1905.4,3467,1931.1,3455.2z"/>
		</g>
		
			<linearGradient id="SVGID_21_" gradientUnits="userSpaceOnUse" x1="2538.3118" y1="2817.5298" x2="4405.2061" y2="2817.5298" gradientTransform="matrix(6.123234e-17 -1 1 6.123234e-17 811.5649 4164.9214)">
			<stop  offset="0" style="stop-color:#EC2A5E"/>
			<stop  offset="1" style="stop-color:#BE2229"/>
		</linearGradient>
		<path class="st24" d="M5379.1-215.5c0,0-333.7,198.2-825.2,386.9c-491.5,188.7-693.2,235.9-1001.6,453
			c-308.4,217-557.5,556.8-901.5,745.5c-344,188.7-640.6,292.5-747.3,245.4c-106.8-47.2,154.2-179.3,450.8-358.6
			c296.6-179.3,391.5-130.2,723.6-551.1s343.4-590.8,551.3-807.8C3837-319.3,5379.1-215.5,5379.1-215.5z"/>
		
			<linearGradient id="SVGID_22_" gradientUnits="userSpaceOnUse" x1="-438.4995" y1="7051.8062" x2="1428.3947" y2="7051.8062" gradientTransform="matrix(6.123234e-17 -1 1 6.123234e-17 811.5649 4164.9214)">
			<stop  offset="0" style="stop-color:#FFFFFF"/>
			<stop  offset="1" style="stop-color:#FBDCDF"/>
		</linearGradient>
		<path class="st25" d="M9613.4,2761.3c0,0-333.7,198.2-825.2,386.9c-491.5,188.7-693.2,235.9-1001.6,453
			c-308.4,217-557.5,556.8-901.5,745.5c-344,188.7-640.6,292.5-747.3,245.4c-106.8-47.2,154.2-179.3,450.8-358.6
			c296.6-179.3,391.5-130.2,723.6-551.1c332.1-420.9,343.4-590.7,551.3-807.8C8071.3,2657.5,9613.4,2761.3,9613.4,2761.3z"/>
	</g>
</g>
</svg>
